HIERARCHY
ROOT base
{
	OFFSET 0.0 0.0 0.0
	CHANNELS 6 Xposition Yposition Zposition Zrotation Yrotation Xrotation
	JOINT root
	{
		OFFSET 0 0 0
		CHANNELS 6 Xposition Yposition Zposition Zrotation Yrotation Xrotation
		JOINT chest
		{
			OFFSET 0 4.72302 0
			CHANNELS 3 Zrotation Yrotation Xrotation
			JOINT neck
			{
				OFFSET 0 4.47788 0
				CHANNELS 3 Zrotation Yrotation Xrotation
				End Site
				{
					OFFSET 0.0 0.0 0.0
				}
			}
			JOINT right_shoulder
			{
				OFFSET -0.481 4.87 3.6622
				CHANNELS 3 Zrotation Yrotation Xrotation
				JOINT right_elbow
				{
					OFFSET 0 -5.49576 0
					CHANNELS 3 Zrotation Yrotation Xrotation
					JOINT right_wrist
					{
						OFFSET 0 -5.17894 0
						CHANNELS 3 Zrotation Yrotation Xrotation
						End Site
						{
							OFFSET 0.0 0.0 0.0
						}
					}
				}
			}
			JOINT left_shoulder
			{
				OFFSET -0.481 4.87 -3.6622
				CHANNELS 3 Zrotation Yrotation Xrotation
				JOINT left_elbow
				{
					OFFSET 0 -5.49576 0
					CHANNELS 3 Zrotation Yrotation Xrotation
					JOINT left_wrist
					{
						OFFSET 0 -5.17894 0
						CHANNELS 3 Zrotation Yrotation Xrotation
						End Site
						{
							OFFSET 0.0 0.0 0.0
						}
					}
				}
			}
		}
		JOINT right_hip
		{
			OFFSET 0 0 1.69774
			CHANNELS 3 Zrotation Yrotation Xrotation
			JOINT right_knee
			{
				OFFSET 0 -8.43092 0
				CHANNELS 3 Zrotation Yrotation Xrotation
				JOINT right_ankle
				{
					OFFSET 0 -8.1974 0
					CHANNELS 3 Zrotation Yrotation Xrotation
					End Site
					{
						OFFSET 0.0 0.0 0.0
					}
				}
			}
		}
		JOINT left_hip
		{
			OFFSET 0 0 -1.69774
			CHANNELS 3 Zrotation Yrotation Xrotation
			JOINT left_knee
			{
				OFFSET 0 -8.43092 0
				CHANNELS 3 Zrotation Yrotation Xrotation
				JOINT left_ankle
				{
					OFFSET 0 -8.1974 0
					CHANNELS 3 Zrotation Yrotation Xrotation
					End Site
					{
						OFFSET 0.0 0.0 0.0
					}
				}
			}
		}
	}
	JOINT red_arrow
	{
		OFFSET 0 0 0
		CHANNELS 3 Zrotation Yrotation Xrotation
		End Site
		{
			OFFSET 0.0 0.0 0.0
		}
	}
	JOINT blue_arrow
	{
		OFFSET 0 0 0
		CHANNELS 3 Zrotation Yrotation Xrotation
		End Site
		{
			OFFSET 0.0 0.0 0.0
		}
	}
}
MOTION
Frames: 9
Frame Time: 0.0333333333333333
174.01948568821 0 -5.35271767526865 0 -0.920866721593165 0 0 17.166196334362 0 -5.7740370908241 2.99289821070875 0.927332293365391 -3.31485952254455 -2.05468442748018 10.4432430098585 0.385801502366913 1.48152386755847 0.636389580829332 -13.9918920628123 -10.4754003682152 -13.770544631362 8.19424795670329 0 0 0 0 0 11.458117570376 -29.9866878121093 23.5088532391938 35.5800160848218 0 0 0 0 0 43.9007237342004 -8.62766811661226 -11.0411357104713 -35.08643929464 0 0 1.87321523788245 -9.63595788354904 -6.04661778942796 -7.01672046942793 16.3715353382473 0.37689877915275 0.00108673649949009 0 0 13.4717653486223 -16.3467026919075 -5.34656002729233 0 0 0 0 0 0
174.57919434607 0 -5.1010117135942 0 -0.798881655603686 0 0 17.0150096893311 0 -7.29780028705593 2.29896140363825 0.958974478799749 -4.19441447105302 -1.36788633182291 10.2041731262635 0.648962943262418 2.24712744660151 1.17871438707113 -14.0597648573238 -11.4095361895354 -13.13977496211 6.83806907388083 0 0 0 0 0 11.9926030608838 -30.6470839103265 24.1652426885685 37.228205618343 0 0 0 0 0 41.0896026470785 -10.7290240683027 -9.30448013946372 -25.1114141722472 0 0 -0.152233200002743 -7.50891112556033 -5.13297614419572 -7.30180023581517 16.8196626009471 1.18203916805531 0.0010812090655176 0 0 15.5467075290729 -15.8246318600789 -6.79076605144778 0 0 0 0 0 0
175.192331218719 0 -4.837284835428 0 -0.71228794051118 0 0 16.8135550498962 0 -8.88529607382407 1.62554711528426 1.23223481659022 -5.01255858392418 -0.562409300926531 9.81860793948568 0.823835297395632 3.02884352508798 1.48027939276656 -13.8994106327407 -12.2285834984688 -12.5079811876473 5.78558644165335 0 0 0 0 0 12.1386316113173 -30.9250641810449 24.40247929135 38.5072712385492 0 0 0 0 0 36.9540242250906 -12.1896422156802 -7.14499169507522 -16.0662851544058 0 0 -2.41432887490082 -5.02532476852268 -4.10620321381674 -7.57156810916284 16.7981807881841 1.84659054494663 -0.497463487984656 0 0 18.0440535053815 -14.7654235318133 -8.16754921399688 0 0 0 0 0 0
175.698104250431 0 -4.53213671781123 0 -0.817370459062818 0 0 16.725574696064 0 -11.6494140506479 -1.9554737503163 0.346745496189824 -5.20169078475104 2.4015276974449 10.5640781019176 0.469829133162492 3.80276849164653 1.9646829364442 -12.9151110621196 -12.5394749715093 -12.5344537867302 5.46132193014652 0 0 0 0 0 12.1543516987823 -30.6504794402491 23.6960654905285 39.082062393057 0 0 0 0 0 35.7352296660593 -10.5598798565568 -2.9266550500695 -11.5058848125778 0 0 -12.0727911146316 -3.37754642114161 -1.61451269479999 -5.97522604165115 18.0683618104095 3.52252698717281 -1.79660399465687 0 0 19.0310351107963 -12.400522443819 -8.24187172527024 0 0 0 0 0 0
176.220830747485 0 -4.26359441503882 0 -1.05394522860106 0 0 16.8898622393608 0 -13.2534277751375 -4.3756721355732 -0.10561376534374 -4.66697029582423 2.33433141940363 9.50679406371905 -0.778381781195416 3.45574024701684 2.45550221150936 -12.4773075416862 -12.3286287581931 -12.0124181085856 6.0200228665171 0 0 0 0 0 10.9127372945975 -30.2757827290808 22.713359362551 38.9882975561311 0 0 0 0 0 33.3409343768477 -9.98090194836501 0.0418669491693508 -7.92460318732859 0 0 -11.996429746862 -2.37711782007944 -2.38027658733665 -4.26162589695307 17.9973090474909 4.66961020839386 -5.15882907350594 0 0 15.5475207356579 -11.8253779923101 -5.79096892672898 0 0 0 0 0 0
176.862199369073 0 -3.9679711073637 0 -1.4442661921498 0 0 17.0129470467567 0 -13.0702537046009 -7.22603053649712 -0.912128866107357 -3.97357202238189 0.0316028303628482 8.26247988728249 -1.10136206448479 2.53311466218431 2.2282748931481 -12.1015961176012 -4.19280676667357 -11.4072189687844 6.9524960868197 0 0 0 0 0 8.92662643800834 -25.8507969603244 21.5100011295183 38.1320001549811 0 0 0 0 0 30.2158801759957 -8.02557275709608 3.18192571372957 -7.13397037108553 0 0 -10.1973100432963 -2.04655026745307 -2.92624418172274 -3.56313849667437 17.220716761543 5.76896635241631 -10.9190033694654 0 0 12.7519081735999 -9.98041296144466 -1.82220768530314 0 0 0 0 0 0
177.522949403524 0 -3.66209947317839 0 -1.97551742623259 0 0 17.1003862023354 0 -12.1031851675129 -9.87386933400843 -1.94774800366424 -3.14419986536631 -1.98077977212469 6.86394590487539 -0.93968303337213 1.56055530885957 1.76180495007229 -11.4758866788683 1.5658562034097 -10.5920671317768 7.90589017655005 0 0 0 0 0 7.1334898336336 -22.2298402711024 19.7548318793884 36.926314672123 0 0 0 0 0 27.1240933151993 -5.86040126854157 6.04188834065624 -7.76035848213094 0 0 -7.63156568346037 -1.76379059662136 -3.41559054302397 -2.73412833848362 15.6286180524392 7.15256278685787 -17.7144781030216 0 0 9.18841379317284 -9.39270838938255 1.82999516424183 0 0 0 0 0 0
178.166682127118 0 -3.35490488409996 0 -2.59130567922865 0 0 17.1603506684303 0 -10.7456722614776 -11.5003245752914 -3.20413086090383 -2.17083795180876 -3.66017253517332 5.63662167858319 -0.788977901371313 0.519118417177204 1.09952001294966 -10.6404852643122 6.30548136162598 -10.1048485228623 8.87099334495191 0 0 0 0 0 5.19268227666076 -18.6276554859302 17.9654046392091 35.1681181118296 0 0 0 0 0 24.0317893645922 -4.4808247644663 8.36316587469296 -8.9424934727309 0 0 -4.7722174683885 -1.36435672964387 -3.90660282548865 -0.17431931776921 14.0211504209109 9.39877952551713 -26.2845691716359 0 0 4.07447802099263 -10.6675169811243 3.89743475416211 0 0 0 0 0 0
178.810622188449 0 -3.07273037582636 0 -3.23757060650881 0 0 17.2076962590218 0 -8.92955873405334 -12.134647040107 -4.36475723947571 -0.946544700113879 -4.87969737903061 4.38616671359039 -0.794771795170302 -0.550788573729941 0.449955023520873 -9.37943773952387 10.4077403793619 -9.77183809930879 9.6014974446104 0 0 0 0 0 2.92361365687299 -14.6109492897285 16.3723648133212 32.9322420266476 0 0 0 0 0 20.5965033130517 -3.29063997372379 9.94185288814024 -10.1709508062819 0 0 -1.84281407955619 -1.33730495246002 -4.22675705133643 3.98199951195732 11.9007381823282 11.7731434547128 -36.5884013082204 0 0 -0.83181519226666 -11.6990236915223 3.51788609896584 0 0 0 0 0 0
